
<svg xmlns="http://www.w3.org/2000/svg" viewBox="0 0 397 311" fill="#00FFA3">
  <path d="M64.6582 237.252C67.4565 234.453 71.3428 232.883 75.4344 232.883H395.004C401.808 232.883 405.211 241.151 400.544 245.818L333.008 313.354C330.209 316.153 326.323 317.722 322.231 317.722H2.66197C-4.14163 317.722 -7.5443 309.454 -2.87728 304.787L64.6582 237.252Z"/>
  <path d="M64.6582 2.76572C67.5618 -0.13787 71.4481 -1.70762 75.4344 -1.70762H395.004C401.808 -1.70762 405.211 6.56042 400.544 11.2274L333.008 78.7633C330.209 81.5616 326.323 83.1313 322.231 83.1313H2.66197C-4.14163 83.1313 -7.5443 74.8633 -2.87728 70.1963L64.6582 2.76572Z"/>
  <path d="M333.008 119.507C330.209 116.709 326.323 115.139 322.231 115.139H2.66197C-4.14163 115.139 -7.5443 123.407 -2.87728 128.074L64.6582 195.61C67.4565 198.408 71.3428 199.978 75.4344 199.978H395.004C401.808 199.978 405.211 191.71 400.544 187.043L333.008 119.507Z"/>
</svg>
